<svg width="105" height="21" viewBox="0 0 105 21" fill="none" xmlns="http://www.w3.org/2000/svg">
<g clip-path="url(#clip0_1804_10228)">
<path fill-rule="evenodd" clip-rule="evenodd" d="M8.52347 5.28077C8.18117 5.18809 7.82039 5.18809 7.47809 5.28077C7.12173 5.37726 6.77613 5.63005 5.7906 6.39657L4.05726 7.74472C3.42297 8.23806 3.21001 8.41103 3.05947 8.61456C2.91481 8.81015 2.80705 9.03049 2.74148 9.26476C2.67324 9.50853 2.66745 9.78283 2.66745 10.5864V14.9996C2.66745 15.5133 2.67468 15.6224 2.69615 15.6932C2.76079 15.9062 2.92752 16.073 3.14059 16.1376C3.21137 16.1591 3.32042 16.1663 3.83411 16.1663H4.25078C4.33608 16.1663 4.3546 16.1661 4.36683 16.1655C4.7093 16.1487 4.98315 15.8748 4.99998 15.5323C5.00058 15.5201 5.00078 15.5016 5.00078 15.4163V13.4996C5.00078 11.8428 6.34393 10.4996 8.00078 10.4996C9.65763 10.4996 11.0008 11.8428 11.0008 13.4996V15.4163C11.0008 15.5016 11.001 15.5201 11.0016 15.5323C11.0184 15.8748 11.2923 16.1487 11.6347 16.1655C11.647 16.1661 11.6655 16.1663 11.7508 16.1663H12.1674C12.6811 16.1663 12.7902 16.1591 12.861 16.1376C13.074 16.073 13.2408 15.9062 13.3054 15.6932C13.3269 15.6224 13.3341 15.5133 13.3341 14.9996V10.5864C13.3341 9.78283 13.3283 9.50853 13.2601 9.26476C13.1945 9.03049 13.0867 8.81015 12.9421 8.61456C12.7916 8.41103 12.5786 8.23806 11.9443 7.74472L10.211 6.39657C9.22543 5.63005 8.87984 5.37726 8.52347 5.28077ZM7.12962 3.99378C7.70013 3.83931 8.30144 3.83931 8.87194 3.99378C9.52079 4.16946 10.0901 4.61272 10.9161 5.25581C10.9534 5.28484 10.9912 5.31427 11.0296 5.3441L12.7629 6.69225C12.7868 6.71089 12.8105 6.72926 12.8338 6.74739C13.37 7.16417 13.741 7.45248 14.0141 7.8217C14.2552 8.14768 14.4348 8.51491 14.5441 8.90536C14.6679 9.34759 14.6677 9.81741 14.6675 10.4966C14.6675 10.5261 14.6674 10.556 14.6674 10.5864V14.9996C14.6674 15.0279 14.6675 15.0558 14.6675 15.0835C14.668 15.4644 14.6684 15.7933 14.5813 16.0802C14.3874 16.7194 13.8872 17.2196 13.248 17.4135C12.9611 17.5005 12.6322 17.5002 12.2513 17.4997C12.2236 17.4997 12.1957 17.4996 12.1674 17.4996L11.7368 17.4996C11.6734 17.4996 11.6189 17.4997 11.5693 17.4972C10.5419 17.4468 9.72033 16.6252 9.66986 15.5978C9.66742 15.5482 9.66743 15.4937 9.66745 15.4303L9.66745 13.4996C9.66745 12.5792 8.92126 11.833 8.00078 11.833C7.08031 11.833 6.33411 12.5792 6.33411 13.4996L6.33412 15.4303C6.33413 15.4937 6.33414 15.5482 6.33171 15.5978C6.28123 16.6252 5.45966 17.4468 4.43225 17.4972C4.38269 17.4997 4.32818 17.4996 4.26475 17.4996L3.83411 17.4996C3.80588 17.4996 3.77792 17.4997 3.75023 17.4997C3.36938 17.5002 3.04044 17.5005 2.75355 17.4135C2.11434 17.2196 1.61413 16.7194 1.42023 16.0802C1.3332 15.7933 1.3336 15.4644 1.33405 15.0835C1.33408 15.0558 1.33411 15.0279 1.33411 14.9996V10.5864C1.33411 10.556 1.3341 10.5261 1.33409 10.4966C1.33387 9.81741 1.33371 9.34759 1.45749 8.90536C1.56678 8.51491 1.74639 8.14768 1.98749 7.8217C2.26057 7.45248 2.63153 7.16416 3.16775 6.74739C3.19108 6.72926 3.21472 6.71089 3.23867 6.69225L4.97201 5.3441C5.01037 5.31427 5.04817 5.28483 5.08545 5.25581C5.91144 4.61272 6.48077 4.16946 7.12962 3.99378Z" fill="white"/>
<g opacity="0.6">
<path fill-rule="evenodd" clip-rule="evenodd" d="M29.5292 5.36225C29.7896 5.1019 30.2117 5.1019 30.4721 5.36225L35.1387 10.0289C35.3991 10.2893 35.3991 10.7114 35.1387 10.9717L30.4721 15.6384C30.2117 15.8987 29.7896 15.8987 29.5292 15.6384C29.2689 15.378 29.2689 14.9559 29.5292 14.6956L33.7245 10.5003L29.5292 6.30506C29.2689 6.04471 29.2689 5.6226 29.5292 5.36225Z" fill="white"/>
</g>
<path opacity="0.6" d="M55.686 16C55.5273 15.58 55.378 15.1693 55.238 14.768C55.098 14.3573 54.9533 13.942 54.804 13.522H50.408L49.526 16H48.112C48.4853 14.9733 48.8353 14.026 49.162 13.158C49.4887 12.2807 49.806 11.45 50.114 10.666C50.4313 9.882 50.744 9.13533 51.052 8.426C51.36 7.70733 51.682 6.998 52.018 6.298H53.264C53.6 6.998 53.922 7.70733 54.23 8.426C54.538 9.13533 54.846 9.882 55.154 10.666C55.4713 11.45 55.7933 12.2807 56.12 13.158C56.4467 14.026 56.7967 14.9733 57.17 16H55.686ZM54.412 12.402C54.1133 11.59 53.8147 10.806 53.516 10.05C53.2267 9.28467 52.9233 8.552 52.606 7.852C52.2793 8.552 51.9667 9.28467 51.668 10.05C51.3787 10.806 51.0893 11.59 50.8 12.402H54.412ZM59.7052 9.042C59.8639 8.93933 60.1019 8.832 60.4192 8.72C60.7459 8.608 61.1192 8.552 61.5392 8.552C62.0619 8.552 62.5239 8.64533 62.9252 8.832C63.3359 9.01867 63.6812 9.28 63.9612 9.616C64.2412 9.952 64.4512 10.3533 64.5912 10.82C64.7405 11.2867 64.8152 11.8 64.8152 12.36C64.8152 12.948 64.7265 13.48 64.5492 13.956C64.3812 14.4227 64.1385 14.8193 63.8212 15.146C63.5039 15.4727 63.1212 15.7247 62.6732 15.902C62.2252 16.0793 61.7212 16.168 61.1612 16.168C60.5545 16.168 60.0179 16.126 59.5512 16.042C59.0845 15.958 58.7019 15.874 58.4032 15.79V5.36L59.7052 5.136V9.042ZM59.7052 14.866C59.8359 14.9033 60.0179 14.9407 60.2512 14.978C60.4939 15.006 60.7925 15.02 61.1472 15.02C61.8472 15.02 62.4072 14.7913 62.8272 14.334C63.2472 13.8673 63.4572 13.2093 63.4572 12.36C63.4572 11.9867 63.4199 11.6367 63.3452 11.31C63.2705 10.9833 63.1492 10.7033 62.9812 10.47C62.8132 10.2273 62.5939 10.0407 62.3232 9.91C62.0619 9.77 61.7445 9.7 61.3712 9.7C61.0165 9.7 60.6899 9.76067 60.3912 9.882C60.0925 10.0033 59.8639 10.1293 59.7052 10.26V14.866ZM73.0733 12.36C73.0733 12.9387 72.9893 13.4613 72.8213 13.928C72.6533 14.3947 72.4153 14.796 72.1073 15.132C71.8087 15.468 71.4493 15.7293 71.0293 15.916C70.6093 16.0933 70.152 16.182 69.6573 16.182C69.1627 16.182 68.7053 16.0933 68.2853 15.916C67.8653 15.7293 67.5013 15.468 67.1933 15.132C66.8947 14.796 66.6613 14.3947 66.4933 13.928C66.3253 13.4613 66.2413 12.9387 66.2413 12.36C66.2413 11.7907 66.3253 11.2727 66.4933 10.806C66.6613 10.33 66.8947 9.924 67.1933 9.588C67.5013 9.252 67.8653 8.99533 68.2853 8.818C68.7053 8.63133 69.1627 8.538 69.6573 8.538C70.152 8.538 70.6093 8.63133 71.0293 8.818C71.4493 8.99533 71.8087 9.252 72.1073 9.588C72.4153 9.924 72.6533 10.33 72.8213 10.806C72.9893 11.2727 73.0733 11.7907 73.0733 12.36ZM71.7153 12.36C71.7153 11.5387 71.5287 10.89 71.1553 10.414C70.7913 9.92867 70.292 9.686 69.6573 9.686C69.0227 9.686 68.5187 9.92867 68.1453 10.414C67.7813 10.89 67.5993 11.5387 67.5993 12.36C67.5993 13.1813 67.7813 13.8347 68.1453 14.32C68.5187 14.796 69.0227 15.034 69.6573 15.034C70.292 15.034 70.7913 14.796 71.1553 14.32C71.5287 13.8347 71.7153 13.1813 71.7153 12.36ZM80.7012 15.79C80.4025 15.8647 80.0058 15.944 79.5112 16.028C79.0258 16.112 78.4612 16.154 77.8172 16.154C77.2572 16.154 76.7858 16.0747 76.4032 15.916C76.0205 15.748 75.7125 15.5147 75.4792 15.216C75.2458 14.9173 75.0778 14.5673 74.9752 14.166C74.8725 13.7553 74.8212 13.3027 74.8212 12.808V8.72H76.1232V12.528C76.1232 13.4147 76.2632 14.0493 76.5432 14.432C76.8232 14.8147 77.2945 15.006 77.9572 15.006C78.0972 15.006 78.2418 15.0013 78.3912 14.992C78.5405 14.9827 78.6805 14.9733 78.8112 14.964C78.9418 14.9453 79.0585 14.9313 79.1612 14.922C79.2732 14.9033 79.3525 14.8847 79.3992 14.866V8.72H80.7012V15.79ZM84.1622 8.72H86.9202V9.812H84.1622V13.172C84.1622 13.536 84.1902 13.8393 84.2462 14.082C84.3022 14.3153 84.3862 14.502 84.4982 14.642C84.6102 14.7727 84.7502 14.866 84.9182 14.922C85.0862 14.978 85.2822 15.006 85.5062 15.006C85.8982 15.006 86.2109 14.964 86.4442 14.88C86.6869 14.7867 86.8549 14.7213 86.9482 14.684L87.2002 15.762C87.0696 15.8273 86.8409 15.9067 86.5142 16C86.1876 16.1027 85.8142 16.154 85.3942 16.154C84.8996 16.154 84.4889 16.0933 84.1622 15.972C83.8449 15.8413 83.5882 15.65 83.3922 15.398C83.1962 15.146 83.0562 14.838 82.9722 14.474C82.8976 14.1007 82.8602 13.6713 82.8602 13.186V6.69L84.1622 6.466V8.72ZM97.6133 15.79C97.3146 15.8647 96.9179 15.944 96.4233 16.028C95.9379 16.112 95.3733 16.154 94.7293 16.154C94.1693 16.154 93.6979 16.0747 93.3153 15.916C92.9326 15.748 92.6246 15.5147 92.3913 15.216C92.1579 14.9173 91.9899 14.5673 91.8873 14.166C91.7846 13.7553 91.7333 13.3027 91.7333 12.808V8.72H93.0353V12.528C93.0353 13.4147 93.1753 14.0493 93.4553 14.432C93.7353 14.8147 94.2066 15.006 94.8693 15.006C95.0093 15.006 95.1539 15.0013 95.3033 14.992C95.4526 14.9827 95.5926 14.9733 95.7233 14.964C95.8539 14.9453 95.9706 14.9313 96.0733 14.922C96.1853 14.9033 96.2646 14.8847 96.3113 14.866V8.72H97.6133V15.79ZM101.55 15.062C102.082 15.062 102.474 14.992 102.726 14.852C102.988 14.712 103.118 14.488 103.118 14.18C103.118 13.8627 102.992 13.6107 102.74 13.424C102.488 13.2373 102.073 13.0273 101.494 12.794C101.214 12.682 100.944 12.57 100.682 12.458C100.43 12.3367 100.211 12.1967 100.024 12.038C99.8377 11.8793 99.6883 11.688 99.5763 11.464C99.4643 11.24 99.4083 10.9647 99.4083 10.638C99.4083 9.994 99.6463 9.48533 100.122 9.112C100.598 8.72933 101.247 8.538 102.068 8.538C102.274 8.538 102.479 8.552 102.684 8.58C102.89 8.59867 103.081 8.62667 103.258 8.664C103.436 8.692 103.59 8.72467 103.72 8.762C103.86 8.79933 103.968 8.832 104.042 8.86L103.804 9.98C103.664 9.90533 103.445 9.83067 103.146 9.756C102.848 9.672 102.488 9.63 102.068 9.63C101.704 9.63 101.387 9.70467 101.116 9.854C100.846 9.994 100.71 10.218 100.71 10.526C100.71 10.6847 100.738 10.8247 100.794 10.946C100.86 11.0673 100.953 11.1793 101.074 11.282C101.205 11.3753 101.364 11.464 101.55 11.548C101.737 11.632 101.961 11.7207 102.222 11.814C102.568 11.9447 102.876 12.0753 103.146 12.206C103.417 12.3273 103.646 12.472 103.832 12.64C104.028 12.808 104.178 13.0133 104.28 13.256C104.383 13.4893 104.434 13.7787 104.434 14.124C104.434 14.796 104.182 15.3047 103.678 15.65C103.184 15.9953 102.474 16.168 101.55 16.168C100.906 16.168 100.402 16.112 100.038 16C99.6743 15.8973 99.427 15.818 99.2963 15.762L99.5343 14.642C99.6837 14.698 99.9217 14.782 100.248 14.894C100.575 15.006 101.009 15.062 101.55 15.062Z" fill="white"/>
</g>
<defs>
<clipPath id="clip0_1804_10228">
<rect width="105" height="21" fill="white"/>
</clipPath>
</defs>
</svg>
